{"title":"Defloration - Annabelle Braun","uid":7315655,"size":337155364,"categoryP":"porn","categoryS":"movies","magnet":"?xt=urn:btih:058950ae5762c256f39ab5e87e5db35789badcb7&amp;dn=Defloration+-+Annabelle+Braun&amp;tr=udp%3A%2F%2Ftracker.openbittorrent.com%3A80&amp;tr=udp%3A%2F%2Fopen.demonii.com%3A1337&amp;tr=udp%3A%2F%2Ftracker.coppersurfer.tk%3A6969&amp;tr=udp%3A%2F%2Fexodus.desync.com%3A6969","seeders":0,"leechers":1,"uploader":"soulless123","files":2,"time":1338479497,"description":"-=Screen=-\n &lt;a href=&quot;\nhttp://bayimg.com/JaOkDAaDo&quot; rel=&quot;nofollow&quot; target=&quot;_NEW&quot;&gt;\nhttp://bayimg.com/JaOkDAaDo&lt;/a&gt;\n\n\nSeeding Time 24/7\n\nDon't Forget To Say Thanks If You Like My Post\n\n\n\n-=Media Info=-\n\n\nFormat : AVI\nFormat/Info : Audio Video Interleave\nFile size : 322 MiB\nDuration : 33mn 31s\nOverall bit rate : 1 341 Kbps\n\nVideo\nID : 0\nFormat : MPEG-4 Visual\nFormat settings, BVOP : 1\nFormat settings, QPel : No\nFormat settings, GMC : No warppoints\nFormat settings, Matrix : Default (H.263)\nMuxing mode : Packed bitstream\nCodec ID : DX50\nCodec ID/Hint : DivX 5\nDuration : 33mn 31s\nBit rate : 1 209 Kbps\nWidth : 712 pixels\nHeight : 400 pixels\nDisplay aspect ratio : 16:9\nFrame rate : 25.000 fps\nColor space : YUV\nChroma subsampling : 40\nBit depth : 8 bits\nScan type : Progressive\nCompression mode : Lossy\nBits/(Pixel*Frame) : 0.170\nStream size : 290 MiB (90%)\nWriting library : DivX 6.8.2 (UTC 2008-05-17)\n\nAudio\nID : 1\nFormat : MPEG Audio\nFormat version : Version 1\nFormat profile : Layer 3\nCodec ID : 55\nCodec ID/Hint : MP3\nDuration : 33mn 31s\nBit rate mode : Constant\nBit rate : 128 Kbps\nChannel(s) : 2 channels\nSampling rate : 32.0 KHz\nCompression mode : Lossy\nStream size : 30.7 MiB (10%)\nAlignment : Split accross interleaves\nInterleave, duration : 500 ms (12.50 video frames)\nInterleave, preload duration : 750 ms","torrent":{"xt":"urn:btih:058950ae5762c256f39ab5e87e5db35789badcb7","amp;dn":"Defloration+-+Annabelle+Braun","amp;tr":["udp%3A%2F%2Ftracker.openbittorrent.com%3A80","udp%3A%2F%2Fopen.demonii.com%3A1337","udp%3A%2F%2Ftracker.coppersurfer.tk%3A6969","udp%3A%2F%2Fexodus.desync.com%3A6969"],"infoHash":"058950ae5762c256f39ab5e87e5db35789badcb7","infoHashBuffer":{"type":"Buffer","data":[5,137,80,174,87,98,194,86,243,154,181,232,126,93,179,87,137,186,220,183]},"announce":[],"urlList":[]}}